<svg width="226" height="40" viewBox="0 0 226 40" fill="none" xmlns="http://www.w3.org/2000/svg">
<path fill-rule="evenodd" clip-rule="evenodd" d="M75.2298 9.13073V12.5437H78.7414V9.13073H75.2298ZM75.2298 15.3952V29.1701H78.7414V15.3952H75.2298ZM64.9126 12.4304V29.1701H68.5674V12.4304H74.0298V9.13074H59.4501V12.4304H64.9126ZM92.2401 29.1701V27.6188C91.0202 28.8303 89.4398 29.5099 87.7408 29.5099C83.9477 29.5099 80.5794 26.6289 80.5794 22.2851C80.5794 17.9414 83.9477 15.0603 87.7408 15.0603C89.3558 15.0603 90.8523 15.6808 92.0722 16.8086V9.13073H95.5838V29.1701H92.2401ZM92.0722 22.4821V22.1128C91.9883 19.7439 90.2893 18.163 88.0816 18.163C85.8196 18.163 84.0909 19.8572 84.0909 22.2851C84.0909 24.7131 85.8196 26.4073 88.0816 26.4073C90.2893 26.4023 91.9883 24.8215 92.0722 22.4821ZM104.31 15.0601C100.433 15.0601 97.4599 18.0249 97.4599 22.2849C97.4599 26.545 100.379 29.5098 104.932 29.5048C106.859 29.5048 108.642 28.8597 109.97 27.983V24.8508L105.16 26.6287C102.893 26.6287 101.253 25.56 100.942 23.4965H110.963V20.4775C110.257 17.1778 107.822 15.0601 104.31 15.0601ZM107.708 20.8124H100.912C101.228 18.9803 102.527 17.9904 104.31 17.9904C106.093 17.9904 107.367 18.8917 107.708 20.8124ZM112.964 34.809V15.3951H116.302V16.9759C117.522 15.7595 119.108 15.0552 120.802 15.0552C124.595 15.0552 127.963 17.9363 127.963 22.2801C127.963 26.6238 124.595 29.5049 120.802 29.5049C119.187 29.5049 117.69 28.8843 116.47 27.7812V34.809H112.964ZM124.452 22.285C124.452 19.857 122.728 18.1628 120.461 18.1628C118.253 18.1628 116.554 19.7437 116.47 22.1126V22.285C116.47 24.713 118.199 26.4071 120.461 26.4071C122.728 26.4022 124.452 24.708 124.452 22.285ZM136.511 15.0601C132.55 15.0601 129.009 17.9363 129.009 22.2849C129.009 26.6287 132.545 29.5098 136.511 29.5098C140.472 29.5098 144.013 26.6287 144.013 22.2849C144.013 17.9412 140.472 15.0601 136.511 15.0601ZM136.511 18.1628C138.773 18.1628 140.502 19.857 140.502 22.2849C140.502 24.708 138.773 26.4022 136.511 26.4071C134.249 26.4071 132.52 24.7129 132.52 22.2849C132.52 19.857 134.249 18.1628 136.511 18.1628ZM145.046 22.2849C145.046 17.9363 148.587 15.0601 152.548 15.0601C156.509 15.0601 160.05 17.9412 160.05 22.2849C160.05 26.6287 156.509 29.5098 152.548 29.5098C148.582 29.5098 145.046 26.6287 145.046 22.2849ZM156.538 22.2849C156.538 19.857 154.81 18.1628 152.548 18.1628C150.286 18.1628 148.557 19.857 148.557 22.2849C148.557 24.7129 150.286 26.4071 152.548 26.4071C154.81 26.4022 156.538 24.708 156.538 22.2849ZM161.902 9.13073V29.1701H165.414V9.13073H161.902ZM174.408 29.1701V9.13073H176.759V26.9983H185.704V29.1701H174.408ZM191.833 20.9553C188.751 21.0932 186.598 22.3638 186.598 25.2448C186.598 27.9585 188.553 29.5098 191.359 29.5049C193.369 29.5049 195.092 28.5445 196.001 26.8504L196.51 29.1651H198.831L198.036 25.8063V19.9654C198.036 17.0006 196.026 15.0552 192.712 15.0552C190.899 15.0552 189.087 15.6167 187.758 16.2668V18.5273L192.43 17.0597C194.465 17.0597 195.769 18.1628 195.769 19.857V20.7878L191.833 20.9553ZM195.769 22.679V23.8068C195.685 26.2052 193.902 27.5054 191.833 27.5004C189.991 27.5004 188.86 26.6829 188.86 25.2448C188.86 23.6935 190.02 22.9301 191.946 22.8464L195.769 22.679ZM201.231 29.1701V9.13073H203.493V17.6557C204.738 15.9911 206.664 15.0603 208.704 15.0603C212.438 15.0603 215.781 17.9414 215.781 22.2851C215.781 26.6289 212.443 29.5099 208.704 29.5099C206.551 29.5099 204.57 28.4954 203.326 26.688V29.1701H201.231ZM213.46 22.2851C213.46 19.3499 211.282 17.1189 208.482 17.1189C205.736 17.1189 203.582 19.2071 203.498 22.0586V22.2851C203.498 25.2204 205.676 27.4513 208.482 27.4513C211.282 27.4464 213.46 25.2204 213.46 22.2851ZM217.121 26.0919V28.4066C218.341 29.0567 219.783 29.5098 221.25 29.5049C224.109 29.5049 225.863 28.0077 225.863 25.496C225.863 22.7986 223.795 21.903 221.985 21.1191C220.576 20.5089 219.324 19.9665 219.324 18.6947C219.324 17.7048 220.06 17.0006 221.447 17.0006L225.102 18.3845V16.0402C224.223 15.5921 222.978 15.0552 221.423 15.0552C218.963 15.0552 217.15 16.4933 217.15 18.6947C217.15 21.3766 219.145 22.2408 220.931 23.0147C222.379 23.642 223.69 24.21 223.69 25.6388C223.69 26.9686 222.672 27.53 221.284 27.53L217.121 26.0919Z" fill="white"/>
<path d="M0.743842 22.1046C0.285714 21.4365 0.0394089 20.4983 0 19.3489C0.320197 8.61096 9.14286 0 19.9951 0C31.0443 0 40 8.93025 40 19.9531C40 20.8078 39.9409 21.6527 39.8325 22.4779C35.6059 16.0381 28.7488 14.2943 27.9409 14.1076C26 13.5378 24.1182 13.302 22.3498 13.4052C15.3498 13.8227 11.9458 17.2121 9.21182 19.9383C7.22168 21.9179 5.78325 23.3523 3.49754 23.3523C2.21675 23.3473 1.31527 22.9396 0.743842 22.1046ZM30.8522 26.4076L30.7931 26.3585C29.5271 25.2385 26.9064 23.3424 23.5369 23.2098C20.3448 23.0821 17.3202 24.5901 14.5567 27.6995C12.5025 30.0082 9.26108 32.6755 4.98522 33.1421C6 34.2867 7.14286 35.3133 8.39409 36.2024C11.67 35.1659 13.6502 33.2256 15.5813 31.3295C17.6601 29.291 19.8079 27.1886 23.2414 26.9823C26.5025 26.7858 29.9212 29.237 31.0197 32.5527C31.4631 33.8839 31.4975 35.2249 31.1576 36.5069C32.2759 35.7554 33.3103 34.8958 34.2512 33.9379C34.0591 29.0798 31.0394 26.555 30.8522 26.4076ZM28.1232 33.5056C27.4631 31.5015 25.3103 29.9099 23.4286 30.018C21.1379 30.1556 19.6355 31.6292 17.7291 33.4958C16.1478 35.048 14.3399 36.8164 11.7389 38.1181C14.2562 39.2577 17.0493 39.8963 19.9951 39.8963C28.5172 39.9012 28.7931 35.5343 28.1232 33.5056ZM27.2315 17.0696L27.1232 17.0402C25.5025 16.5588 23.9606 16.3574 22.5369 16.4458C16.6946 16.7946 13.9901 19.4864 11.3744 22.0947C9.25123 24.2119 7.05419 26.3978 3.50246 26.3978C2.55172 26.3978 1.68473 26.2455 0.906404 25.9459C1.37438 27.4244 2.00493 28.8244 2.78818 30.131C2.95566 30.1457 3.12315 30.1605 3.29557 30.1654C6.49261 30.2931 9.51232 28.7802 12.2759 25.6757C14.6158 23.0477 18.4877 19.958 23.6601 20.1643C27.9557 20.3362 31.2217 22.6695 32.798 24.0596C33.1232 24.3249 35.0837 26.0343 36.3054 29.1044C36.5222 29.6398 36.6946 30.1752 36.8374 30.7106C37.5961 29.5317 38.2365 28.2742 38.734 26.943C35.5074 18.9952 27.601 17.1482 27.2315 17.0696Z" fill="white"/>
</svg>
